<?xml version="1.0" encoding="utf-8"?>
<!-- Generator: Adobe Illustrator 27.5.0, SVG Export Plug-In . SVG Version: 6.00 Build 0)  -->
<svg version="1.1" id="Capa_1" xmlns="http://www.w3.org/2000/svg" xmlns:xlink="http://www.w3.org/1999/xlink" x="0px" y="0px"
	 viewBox="0 0 2122 2122" style="enable-background:new 0 0 2122 2122;" xml:space="preserve">
<g>
	<path style="fill:#4E579E;" d="M1470.207,309.195c0,0,202.984-8.828,207.395,180.918c8.828,141.207,6.191,108.238,8.828,335.367
		c4.309,371.586,2.602,431.07,11.59,706.66c2.926,89.52,17.551,153.125-34.688,209.031c96.563-63.945,76.418-133.855,72.934-240.625
		c-8.984-275.598-7.281-335.082-11.586-706.664c-2.633-227.129,0-194.16-8.828-335.367
		c-4.414-189.746-207.398-180.918-207.398-180.918c-209.195,0-592.652,0.074-807.727,4.137
		c-63.418,1.195-102.145,27.105-125.848,67.203c24.133-15.363,55.758-25.258,97.238-28.023
		C886.754,306.605,1261.008,309.195,1470.207,309.195z"/>
	<path style="fill:#EFE7EB;" d="M616.41,359.16c5.984-0.402,12.137-0.781,18.359-1.152c1.859-0.113,3.738-0.223,5.613-0.328
		c4.762-0.281,9.586-0.547,14.477-0.813c1.773-0.094,3.527-0.191,5.316-0.281c6.289-0.332,12.664-0.648,19.145-0.953
		c2.012-0.094,4.07-0.184,6.098-0.277c4.687-0.215,9.406-0.422,14.18-0.625c2.762-0.117,5.527-0.234,8.316-0.348
		c4.398-0.18,8.844-0.352,13.309-0.523c3.816-0.145,7.645-0.289,11.508-0.426c5.047-0.184,10.117-0.363,15.242-0.535
		c3.879-0.129,7.801-0.254,11.719-0.379c3.027-0.098,6.066-0.188,9.117-0.281c4.367-0.133,8.734-0.266,13.148-0.391
		c1.535-0.043,3.09-0.086,4.629-0.125c10.238-0.285,20.598-0.555,31.063-0.805c0.918-0.023,1.832-0.047,2.75-0.066
		c5.852-0.137,11.727-0.273,17.637-0.398c0.535-0.012,1.07-0.023,1.605-0.039c197.816-4.254,427.348-2.977,574.867-2.977
		c0,0,202.977-8.824,207.391,180.922c8.824,141.207,6.195,108.238,8.824,335.367c4.309,371.586,2.605,431.062,11.59,706.66
		c3.027,92.695,18.617,157.609-40.488,214.953c5.918-2.324,11.535-5.07,16.75-8.328c18.703-11.703,33.309-23.59,44.758-35.84
		c52.238-55.906,37.613-119.512,34.688-209.031c-8.988-275.59-7.281-335.074-11.59-706.66c-2.637-227.129,0-194.16-8.828-335.367
		c-4.41-189.746-207.395-180.918-207.395-180.918c-209.199,0-583.453-2.59-798.09,11.719c-41.481,2.766-73.106,12.66-97.238,28.023
		c-11.184,7.121-20.754,15.418-28.93,24.734C565.535,366.004,588.793,361,616.41,359.16z"/>
	<g>
		<path style="fill:#627ABB;" d="M1550.879,1821.578c-0.02-0.012-0.031-0.027-0.051-0.035c-0.348,0.156-0.688,0.32-1.039,0.473
			C1550.145,1821.863,1550.523,1821.734,1550.879,1821.578z"/>
		<path style="fill:#627ABB;" d="M891.535,349.438c-7.254,0.121-14.492,0.246-21.688,0.379
			C877.043,349.684,884.281,349.563,891.535,349.438z"/>
		<path style="fill:#627ABB;" d="M1642.313,1570.387c-8.984-275.598-7.281-335.074-11.59-706.66
			c-2.629-227.129,0-194.16-8.824-335.367c-4.414-189.746-207.391-180.922-207.391-180.922c-133.598,0-334.434-1.039-518.086,1.922
			c-2.855,77.371-5.629,154.785-5.684,231.992c28.285-0.164,56.324,1.035,82.078,0.621c85.66-1.375,166.633-8.688,252.207-3.289
			c22.652,1.43,44.855,0.984,66.563,0.801c-55.348-27.668-136.555-17.152-156.328-74.809
			c-17.371-50.676,266.016-57.852,311.902-25.73c40.832,28.582,54.477,254.996,20.152,313.824c-0.023,0.996-0.047,2-0.07,2.996
			c-1.715,82.621,12.016,181.355-77.262,205.785c-79.141,21.656-163.879,12.371-244.324,14.855
			c-68.555,2.117-137.785,3.481-207.113,2.465c1.133,4.285,2.246,8.578,3.43,12.859c62.125,224.516,183.027,429.195,349.738,591.781
			c38.195,37.258,78.488,71.922,120.504,104.145c20.176-0.402,40.352-0.719,60.531-0.762c16.09-0.031,16.09,24.914,0,24.945
			c-9.23,0.02-18.465,0.145-27.691,0.242c34.246,24.699,69.535,47.871,105.773,69.461c4.184-1.867,8.242-3.906,12.043-6.285
			c15.672-9.809,28.461-19.746,38.953-29.918C1660.93,1727.996,1645.34,1663.082,1642.313,1570.387z"/>
		<path style="fill:#627ABB;" d="M891.535,349.438c1.625-0.023,3.258-0.051,4.887-0.078v-0.004
			C894.785,349.379,893.168,349.414,891.535,349.438z"/>
		<path style="fill:#627ABB;" d="M1518.875,1831.117c-10.313,1.91-21.145,3.055-32.246,3.684
			C1497.734,1834.172,1508.563,1833.027,1518.875,1831.117z"/>
	</g>
	<path style="fill:#4E6DB3;" d="M1445.055,1752.082c-110.406,1.145-220.688,7.238-331.137,7.238c-61.656,0-123.313,0-184.969,0
		c-39.914,0-92.164,11.344-128.496-9.184c-14.004-7.906-1.434-29.461,12.59-21.539c19.75,11.156,43.062,7.32,64.707,6.203
		c26.918-1.383,54.07-0.426,81.027-0.426c57.926,0,115.856,0,173.781,0c93.277,0,186.438-4.848,279.656-6.719
		c-42.016-32.223-82.309-66.887-120.504-104.145C1125,1460.926,1004.098,1256.246,941.973,1031.73
		c-1.184-4.281-2.297-8.574-3.43-12.859c-36.352-0.535-72.727-1.684-109.051-3.797c-115.426-6.727-112.84-67.086-115.035-168.219
		c-1.434-66.203-15.324-207.742,42.789-239.758c38.91-21.438,86.535-25.473,133.492-25.746
		c0.055-77.211,2.828-154.625,5.684-231.996c-19.148,0.309-38.102,0.66-56.781,1.059c-0.535,0.016-1.07,0.027-1.605,0.039
		c-5.91,0.125-11.785,0.262-17.637,0.398c-0.918,0.02-1.832,0.043-2.75,0.066c-10.469,0.25-20.82,0.52-31.063,0.805
		c-1.539,0.039-3.094,0.082-4.629,0.125c-4.414,0.125-8.781,0.258-13.148,0.391c-3.051,0.094-6.09,0.184-9.117,0.281
		c-3.922,0.125-7.84,0.25-11.719,0.379c-5.125,0.172-10.195,0.352-15.242,0.535c-3.863,0.137-7.687,0.281-11.508,0.426
		c-4.465,0.172-8.91,0.344-13.309,0.523c-2.789,0.113-5.555,0.23-8.316,0.348c-4.773,0.203-9.492,0.41-14.18,0.625
		c-2.027,0.094-4.086,0.184-6.098,0.277c-6.481,0.305-12.856,0.621-19.145,0.953c-1.789,0.09-3.543,0.188-5.316,0.281
		c-4.891,0.266-9.715,0.531-14.477,0.813c-1.875,0.105-3.754,0.215-5.613,0.328c-6.223,0.371-12.375,0.75-18.359,1.152
		c-27.617,1.84-50.875,6.844-70.461,14.512c-68.84,26.945-92.266,86.91-99.66,159.152c10.375,7.219,9.684,25.477-2.219,30.582
		c-0.621,13.273-0.875,26.828-0.914,40.57c5.09,0.434,10.164,0.676,15.109,0.809c16.711,0.445,33.43-0.004,50.098-1.273
		c13.758-1.047,28.293-1.785,41.367-6.637c13.148-4.887,21.844-17.906,15.758-25.863c-5.324,3.977-11.902,6.355-19.055,6.355
		c-17.629,0-31.918-14.293-31.918-31.922s14.289-31.922,31.918-31.922c14.832,0,27.266,10.133,30.848,23.844
		c11.859,5.977,21.672,15.496,24.371,29.109c3.91,19.695-0.379,40.938-18.516,52.496c-35.844,22.84-88.562,23.055-130.148,20.504
		c-2.988-0.18-6.227-0.414-9.57-0.691c0.344,23.668,0.906,47.574,0.906,71.168c0,12.883-0.02,26.355-0.051,40.316
		c12.438,6.086,12.43,26.27-0.094,31.766c-0.043,13.23-0.09,26.785-0.148,40.707c4.797,0.387,9.574,0.602,14.234,0.723
		c16.711,0.449,33.43,0,50.098-1.269c13.758-1.047,28.293-1.785,41.367-6.637c13.148-4.887,21.844-17.906,15.758-25.863
		c-5.324,3.973-11.902,6.355-19.055,6.355c-17.629,0-31.918-14.293-31.918-31.922c0-17.633,14.289-31.922,31.918-31.922
		c14.832,0,27.266,10.133,30.848,23.844c11.859,5.977,21.672,15.496,24.371,29.113c3.91,19.691-0.375,40.93-18.516,52.488
		c-35.844,22.844-88.562,23.059-130.148,20.508c-2.848-0.176-5.926-0.395-9.098-0.656c-0.148,35.59-0.301,72.844-0.395,111.129
		c13.43,5.73,13.426,27.211-0.066,32.336c-0.023,13.379-0.035,26.859-0.039,40.395c5.012,0.422,10.008,0.652,14.875,0.785
		c16.711,0.453,33.43,0,50.098-1.27c13.758-1.051,28.293-1.785,41.367-6.641c13.148-4.883,21.844-17.902,15.758-25.859
		c-5.324,3.973-11.902,6.352-19.055,6.352c-17.629,0-31.918-14.289-31.918-31.922c0-17.629,14.289-31.918,31.918-31.918
		c14.832,0,27.266,10.133,30.848,23.84c11.859,5.98,21.672,15.5,24.371,29.113c3.91,19.695-0.375,40.934-18.516,52.492
		c-35.844,22.844-88.562,23.059-130.148,20.508c-2.992-0.18-6.23-0.414-9.582-0.691c0.051,37.031,0.188,74.328,0.469,111.297
		c12.844,5.855,12.961,26.426,0.285,31.965c0.137,13.672,0.301,27.254,0.484,40.754c4.59,0.352,9.156,0.543,13.621,0.664
		c16.711,0.453,33.43,0,50.098-1.273c13.758-1.047,28.293-1.781,41.367-6.641c13.148-4.879,21.844-17.902,15.758-25.859
		c-5.324,3.977-11.902,6.359-19.055,6.359c-17.629,0-31.918-14.293-31.918-31.93c0-17.625,14.289-31.914,31.918-31.914
		c14.832,0,27.266,10.133,30.848,23.844c11.859,5.973,21.672,15.492,24.371,29.109c3.91,19.699-0.379,40.93-18.516,52.492
		c-35.844,22.84-88.562,23.059-130.148,20.508c-2.465-0.148-5.105-0.34-7.816-0.551c0.668,39.398,1.578,77.602,2.777,113.922
		c7.133,6.594,7.457,19.043,0.91,25.859c0.578,15.246,1.219,30.082,1.918,44.469c2.516,0.121,5.02,0.223,7.488,0.289
		c16.711,0.453,33.43,0,50.098-1.273c13.758-1.047,28.293-1.781,41.367-6.641c13.148-4.883,21.844-17.906,15.758-25.859
		c-5.324,3.973-11.902,6.355-19.055,6.355c-17.629,0-31.918-14.293-31.918-31.926c0-17.625,14.289-31.91,31.918-31.91
		c14.832,0,27.266,10.129,30.848,23.836c11.859,5.976,21.672,15.496,24.371,29.113c3.91,19.695-0.379,40.93-18.516,52.492
		c-35.844,22.84-88.562,23.059-130.148,20.512c-0.117-0.012-0.246-0.02-0.359-0.027c4.598,80.492-1.09,135.785,10.871,184.078
		c14.965,0.238,29.934-0.207,44.863-1.34c13.758-1.047,28.293-1.789,41.367-6.641c13.152-4.883,21.844-17.902,15.758-25.863
		c-5.324,3.977-11.902,6.359-19.055,6.359c-17.629,0-31.918-14.293-31.918-31.926c0-17.629,14.289-31.914,31.918-31.914
		c14.832,0,27.266,10.129,30.848,23.836c11.859,5.977,21.672,15.496,24.371,29.113c3.91,19.695-0.375,40.938-18.516,52.492
		c-29.375,18.719-70.07,22.238-106.699,21.496c9.055,18.305,21.996,36.23,40.695,54.93c59.938,59.934,293.41,47.313,443.453,52.949
		c102.414,3.848,294.867,2.547,397.125-6.617c3.309-0.301,6.734-0.512,10.219-0.676c0.332-0.02,0.648-0.047,0.973-0.059
		c3.313-0.148,6.707-0.234,10.148-0.289c0.543-0.008,1.082-0.023,1.629-0.027c3.313-0.039,6.68-0.039,10.094-0.02
		c0.766,0.004,1.531,0.008,2.297,0.02c3.199,0.031,6.434,0.086,9.707,0.152c1.301,0.031,2.617,0.059,3.934,0.094
		c2.023,0.043,4.055,0.102,6.094,0.156c47.488,1.297,100.137,4.039,138.074-12.914
		C1514.621,1799.98,1479.313,1776.797,1445.055,1752.082z"/>
	<g>
		<path style="fill:#4E579E;" d="M550.664,564.746c-22.227-2.082-22.426-37.027,0-34.922c8.719,0.82,18.184,3.293,26.617,7.543
			c-3.582-13.711-16.016-23.844-30.848-23.844c-17.629,0-31.918,14.293-31.918,31.922s14.289,31.922,31.918,31.922
			c7.152,0,13.73-2.379,19.055-6.355C563.074,567.856,558.406,565.473,550.664,564.746z"/>
		<path style="fill:#404C90;" d="M583.137,618.973c18.137-11.559,22.426-32.801,18.516-52.496
			c-2.699-13.613-12.512-23.133-24.371-29.109c-8.434-4.25-17.898-6.723-26.617-7.543c-22.426-2.106-22.227,32.84,0,34.922
			c7.742,0.727,12.41,3.109,14.824,6.266c6.086,7.957-2.609,20.977-15.758,25.863c-13.074,4.852-27.609,5.59-41.367,6.637
			c-16.668,1.269-33.387,1.719-50.098,1.273c-4.945-0.133-10.02-0.375-15.109-0.809c-13.102-1.113-26.305-3.621-37.691-9.805
			c-5.105-2.77-7.781-6.695-6.922-12.578c2.453-16.805,25.543-17.102,38.172-16.848c2.801,0.059,5.254-0.434,7.355-1.34
			c11.902-5.105,12.594-23.363,2.219-30.582c-2.539-1.77-5.699-2.922-9.574-3c-39.066-0.793-82.914,22.07-71.25,67.691
			c8.078,31.609,48.605,38.824,77.953,41.27c3.344,0.277,6.582,0.512,9.57,0.691C494.574,642.027,547.293,641.813,583.137,618.973z"
			/>
		<path style="fill:#4E579E;" d="M550.664,783.43c-22.227-2.086-22.426-37.027,0-34.922c8.719,0.816,18.184,3.289,26.617,7.543
			c-3.582-13.711-16.016-23.844-30.848-23.844c-17.629,0-31.918,14.289-31.918,31.922c0,17.629,14.289,31.922,31.918,31.922
			c7.152,0,13.73-2.383,19.055-6.355C563.074,786.539,558.406,784.156,550.664,783.43z"/>
		<path style="fill:#404C90;" d="M583.137,837.652c18.141-11.559,22.426-32.797,18.516-52.488
			c-2.699-13.617-12.512-23.137-24.371-29.113c-8.434-4.254-17.898-6.727-26.617-7.543c-22.426-2.106-22.227,32.836,0,34.922
			c7.742,0.727,12.41,3.109,14.824,6.266c6.086,7.957-2.609,20.977-15.758,25.863c-13.074,4.852-27.609,5.59-41.367,6.637
			c-16.668,1.269-33.387,1.719-50.098,1.269c-4.66-0.121-9.438-0.336-14.234-0.723c-13.391-1.07-26.926-3.566-38.566-9.887
			c-5.105-2.77-7.781-6.695-6.922-12.578c2.453-16.805,25.543-17.102,38.172-16.848c2.852,0.059,5.336-0.457,7.465-1.394
			c12.523-5.496,12.531-25.68,0.094-31.766c-2.152-1.055-4.664-1.703-7.559-1.762c-39.066-0.793-82.914,22.07-71.25,67.691
			c8.121,31.777,49.047,38.898,78.426,41.305c3.172,0.262,6.25,0.48,9.098,0.656C494.574,860.711,547.293,860.496,583.137,837.652z"
			/>
		<path style="fill:#4E579E;" d="M550.664,1002.113c-22.227-2.086-22.426-37.027,0-34.922c8.719,0.816,18.184,3.289,26.617,7.539
			c-3.582-13.707-16.016-23.84-30.848-23.84c-17.629,0-31.918,14.289-31.918,31.918c0,17.633,14.289,31.922,31.918,31.922
			c7.152,0,13.73-2.379,19.055-6.352C563.074,1005.223,558.406,1002.84,550.664,1002.113z"/>
		<path style="fill:#404C90;" d="M583.137,1056.336c18.141-11.559,22.426-32.797,18.516-52.492
			c-2.699-13.613-12.512-23.133-24.371-29.113c-8.434-4.25-17.898-6.723-26.617-7.539c-22.426-2.106-22.227,32.836,0,34.922
			c7.742,0.727,12.41,3.109,14.824,6.266c6.086,7.957-2.609,20.977-15.758,25.859c-13.074,4.855-27.609,5.59-41.367,6.641
			c-16.668,1.27-33.387,1.723-50.098,1.27c-4.867-0.133-9.863-0.363-14.875-0.785c-13.18-1.102-26.473-3.605-37.926-9.824
			c-5.105-2.77-7.781-6.699-6.922-12.582c2.453-16.805,25.543-17.101,38.172-16.844c2.539,0.051,4.746-0.398,6.715-1.145
			c13.492-5.125,13.496-26.605,0.066-32.336c-1.98-0.844-4.215-1.391-6.781-1.441c-39.066-0.797-82.914,22.07-71.25,67.691
			c8.078,31.605,48.602,38.824,77.941,41.27c3.352,0.277,6.59,0.512,9.582,0.691C494.574,1079.395,547.293,1079.18,583.137,1056.336
			z"/>
		<path style="fill:#4E579E;" d="M550.664,1220.797c-22.227-2.086-22.426-37.027,0-34.922c8.719,0.813,18.184,3.289,26.617,7.543
			c-3.582-13.711-16.016-23.844-30.848-23.844c-17.629,0-31.918,14.289-31.918,31.914c0,17.637,14.289,31.93,31.918,31.93
			c7.152,0,13.73-2.383,19.055-6.359C563.074,1223.902,558.406,1221.523,550.664,1220.797z"/>
		<path style="fill:#404C90;" d="M583.137,1275.02c18.137-11.563,22.426-32.793,18.516-52.492
			c-2.699-13.617-12.512-23.137-24.371-29.109c-8.434-4.254-17.898-6.73-26.617-7.543c-22.426-2.105-22.227,32.836,0,34.922
			c7.742,0.727,12.41,3.105,14.824,6.262c6.086,7.957-2.609,20.98-15.758,25.859c-13.074,4.859-27.609,5.594-41.367,6.641
			c-16.668,1.273-33.387,1.727-50.098,1.273c-4.465-0.121-9.031-0.313-13.621-0.664c-13.59-1.047-27.363-3.531-39.18-9.949
			c-5.105-2.766-7.781-6.699-6.922-12.578c2.453-16.805,25.543-17.102,38.172-16.844c2.844,0.059,5.324-0.457,7.445-1.383
			c12.676-5.539,12.559-26.109-0.285-31.965c-2.063-0.941-4.438-1.52-7.16-1.574c-39.066-0.793-82.914,22.07-71.25,67.688
			c8.238,32.242,50.25,39.109,79.707,41.414c2.711,0.211,5.352,0.402,7.816,0.551
			C494.574,1298.078,547.293,1297.859,583.137,1275.02z"/>
		<path style="fill:#4E579E;" d="M550.664,1439.48c-22.227-2.086-22.426-37.027,0-34.922c8.719,0.813,18.184,3.289,26.617,7.539
			c-3.582-13.707-16.016-23.836-30.848-23.836c-17.629,0-31.918,14.285-31.918,31.91c0,17.633,14.289,31.926,31.918,31.926
			c7.152,0,13.73-2.383,19.055-6.355C563.074,1442.582,558.406,1440.207,550.664,1439.48z"/>
		<path style="fill:#404C90;" d="M583.137,1493.703c18.137-11.563,22.426-32.797,18.516-52.492
			c-2.699-13.617-12.512-23.137-24.371-29.113c-8.434-4.25-17.898-6.727-26.617-7.539c-22.426-2.105-22.227,32.836,0,34.922
			c7.742,0.727,12.41,3.102,14.824,6.262c6.086,7.953-2.609,20.977-15.758,25.859c-13.074,4.859-27.609,5.594-41.367,6.641
			c-16.668,1.273-33.387,1.727-50.098,1.273c-2.469-0.066-4.973-0.168-7.488-0.289c-15.523-0.77-31.711-2.938-45.313-10.32
			c-5.105-2.77-7.781-6.703-6.922-12.582c2.453-16.805,25.543-17.102,38.172-16.844c5.324,0.102,9.344-1.805,12.145-4.723
			c6.547-6.816,6.223-19.266-0.91-25.859c-2.754-2.539-6.453-4.242-11.234-4.34c-39.066-0.801-82.914,22.07-71.25,67.688
			c8.961,35.074,57.914,40.137,87.164,41.941c0.113,0.008,0.242,0.016,0.359,0.027
			C494.574,1516.762,547.293,1516.543,583.137,1493.703z"/>
		<path style="fill:#4E579E;" d="M550.664,1658.164c-22.223-2.09-22.426-37.035,0-34.926c8.719,0.816,18.184,3.289,26.617,7.539
			c-3.582-13.707-16.016-23.836-30.848-23.836c-17.629,0-31.918,14.285-31.918,31.914c0,17.633,14.289,31.926,31.918,31.926
			c7.152,0,13.73-2.383,19.055-6.359C563.074,1661.27,558.406,1658.891,550.664,1658.164z"/>
		<path style="fill:#404C90;" d="M583.137,1712.383c18.141-11.555,22.426-32.797,18.516-52.492
			c-2.699-13.617-12.512-23.137-24.371-29.113c-8.434-4.25-17.898-6.723-26.617-7.539c-22.426-2.109-22.223,32.836,0,34.926
			c7.742,0.727,12.41,3.105,14.824,6.258c6.086,7.961-2.605,20.98-15.758,25.863c-13.074,4.852-27.609,5.594-41.367,6.641
			c-14.93,1.133-29.898,1.578-44.863,1.34c-1.742-0.023-3.488-0.023-5.234-0.07c-17.684-0.473-36.992-2.027-52.801-10.609
			c-5.105-2.77-7.781-6.699-6.922-12.582c2.453-16.801,25.543-17.098,38.172-16.84c22.535,0.457,22.488-34.465,0-34.926
			c-39.066-0.793-82.914,22.066-71.25,67.688c8.996,35.211,58.316,40.176,87.523,41.969c7.508,0.457,15.383,0.82,23.449,0.984
			C513.066,1734.621,553.762,1731.102,583.137,1712.383z"/>
	</g>
	<path style="fill:#5A8BC8;" d="M1145.656,1016.406c80.445-2.484,165.184,6.801,244.324-14.855
		c89.277-24.43,75.547-123.164,77.262-205.785c0.023-0.996,0.047-2,0.07-2.996c-7.613,13.047-17.57,17.891-30.133,10.457
		c-51.289-52.441-71.16-149.438-115.59-201.082c-8.406-9.777-18.68-17-30.004-22.66c-21.707,0.184-43.91,0.629-66.563-0.801
		c-85.574-5.398-166.547,1.914-252.207,3.289c-25.754,0.414-53.793-0.785-82.078-0.621c-46.957,0.273-94.582,4.309-133.492,25.746
		c-58.113,32.016-44.223,173.555-42.789,239.758c2.195,101.133-0.391,161.492,115.035,168.219
		c36.324,2.113,72.699,3.262,109.051,3.797C1007.871,1019.887,1077.102,1018.523,1145.656,1016.406z"/>
	<path style="fill:#6E2521;" d="M1527.621,803.981c-0.414,46.137,7.484,92.027,7.484,138.293c0,101.07,0,202.141,0,303.211
		c0,16.082,24.945,16.082,24.945,0c0-104.168,0-208.34,0-312.512c0-45.844-7.82-91.184-7.41-136.988
		c0.383-43.402,6.945-88.191-8-130.016c-5.379-15.035-29.488-8.558-24.059,6.629
		C1535.531,714.422,1528.012,760.535,1527.621,803.981z"/>
	<path style="fill:#6E2521;" d="M1542.586,1305.348c0,22.449,0,44.894,0,67.348c0,16.086,24.945,16.086,24.945,0
		c0-22.453,0-44.898,0-67.348C1567.531,1289.266,1542.586,1289.266,1542.586,1305.348z"/>
	<path style="fill:#6E2521;" d="M1472.746,1726.895c-20.18,0.043-40.355,0.359-60.531,0.762
		c-93.219,1.871-186.379,6.719-279.656,6.719c-57.926,0-115.855,0-173.781,0c-26.957,0-54.109-0.957-81.027,0.426
		c-21.645,1.117-44.957,4.953-64.707-6.203c-14.024-7.922-26.594,13.633-12.59,21.539c36.332,20.527,88.582,9.184,128.496,9.184
		c61.656,0,123.313,0,184.969,0c110.449,0,220.73-6.094,331.137-7.238c9.227-0.098,18.461-0.223,27.691-0.242
		C1488.836,1751.809,1488.836,1726.863,1472.746,1726.895z"/>
	<path style="fill:#6E2521;" d="M1270.703,402.387c-57.473,0.367-114.641,7.113-172.117,7.48c-16.078,0.102-16.086,25.047,0,24.945
		c57.477-0.367,114.645-7.113,172.117-7.48C1286.785,427.23,1286.793,402.285,1270.703,402.387z"/>
	<path style="fill:#FFFFFF;" d="M1321.59,602.144c44.43,51.645,64.301,148.641,115.59,201.082
		c12.563,7.434,22.52,2.59,30.133-10.457c34.324-58.828,20.68-285.242-20.152-313.824c-45.887-32.121-329.273-24.945-311.902,25.73
		c19.773,57.656,100.98,47.141,156.328,74.809C1302.91,585.144,1313.184,592.367,1321.59,602.144z"/>
</g>
</svg>
